# xmcd
#
# Track frame offsets: 
#        150
#        10774
#        44512
#        91531
#        134613
#
# Disc length: 2386 seconds
#
# Revision: 2
# Processed by: cddbd v1.5.2PL0 Copyright (c) Steve Scherf et al.
# Submitted via: ExactAudioCopy v0.95a3
#
DISCID=35095005
DTITLE=The Other Ones - 98 7-19
DYEAR=1998
DGENRE=Jamband
TTITLE0=Jam and Medley
TTITLE1=White Wheeled Limousine
TTITLE2=Bird Song-
TTITLE3=Samson and Delilah
TTITLE4=Drums
EXTD=
EXTT0=
EXTT1=
EXTT2=
EXTT3=
EXTT4=
PLAYORDER=
